<svg version="1.2" baseProfile="tiny-ps" xmlns="http://www.w3.org/2000/svg" viewBox="0 0 256 256" width="256" height="256">
	<title>New Project</title>
	<style>
		tspan { white-space:pre }
	</style>
	<path id="Auto  " fill="#ff0000" aria-label="Auto "  d="M47 98.17L34.11 63.34L21.27 98.17L47 98.17ZM2.05 124L28.77 54.02L39.5 54.02L66.17 124L56.33 124L49.95 106.05L18.41 106.05L12.03 124L2.05 124ZM75.13 103.28L75.13 71.5L83.75 71.5L83.75 102.95Q83.75 110.41 86.66 114.16Q89.56 117.86 95.38 117.86Q102.36 117.86 106.39 113.41Q110.47 108.95 110.47 101.27L110.47 71.5L119.09 71.5L119.09 124L110.47 124L110.47 115.94Q107.33 120.72 103.16 123.06Q99.03 125.36 93.55 125.36Q84.5 125.36 79.81 119.73Q75.13 114.11 75.13 103.28ZM96.83 70.23L96.83 70.23ZM136.72 56.59L145.39 56.59L145.39 71.5L163.16 71.5L163.16 78.2L145.39 78.2L145.39 106.7Q145.39 113.13 147.13 114.95Q148.91 116.78 154.3 116.78L163.16 116.78L163.16 124L154.3 124Q144.31 124 140.52 120.3Q136.72 116.55 136.72 106.7L136.72 78.2L130.39 78.2L130.39 71.5L136.72 71.5L136.72 56.59ZM194.84 77.55Q187.91 77.55 183.88 82.98Q179.84 88.38 179.84 97.8Q179.84 107.22 183.83 112.66Q187.86 118.05 194.84 118.05Q201.73 118.05 205.77 112.61Q209.8 107.17 209.8 97.8Q209.8 88.47 205.77 83.03Q201.73 77.55 194.84 77.55ZM194.84 70.23Q206.09 70.23 212.52 77.55Q218.94 84.86 218.94 97.8Q218.94 110.69 212.52 118.05Q206.09 125.36 194.84 125.36Q183.55 125.36 177.13 118.05Q170.75 110.69 170.75 97.8Q170.75 84.86 177.13 77.55Q183.55 70.23 194.84 70.23Z" />
	<path id="Auto  " fill="#000000" aria-label="Auto "  d="" />
	<path id="Resume " fill="#ffffff" aria-label="Resume"  d="M28.11 172.13Q30.14 172.81 32.05 175.06Q33.98 177.31 35.92 181.25L42.33 194L35.55 194L29.58 182.03Q27.27 177.34 25.08 175.81Q22.92 174.28 19.17 174.28L12.3 174.28L12.3 194L5.98 194L5.98 147.34L20.23 147.34Q28.23 147.34 32.17 150.69Q36.11 154.03 36.11 160.78Q36.11 165.19 34.05 168.09Q32.02 171 28.11 172.13ZM20.23 152.53L12.3 152.53L12.3 169.09L20.23 169.09Q24.8 169.09 27.11 167Q29.45 164.88 29.45 160.78Q29.45 156.69 27.11 154.63Q24.8 152.53 20.23 152.53ZM77.27 175.06L77.27 177.88L50.83 177.88Q51.2 183.81 54.39 186.94Q57.61 190.03 63.33 190.03Q66.64 190.03 69.73 189.22Q72.86 188.41 75.92 186.78L75.92 192.22Q72.83 193.53 69.58 194.22Q66.33 194.91 62.98 194.91Q54.61 194.91 49.7 190.03Q44.83 185.16 44.83 176.84Q44.83 168.25 49.45 163.22Q54.11 158.16 61.98 158.16Q69.05 158.16 73.14 162.72Q77.27 167.25 77.27 175.06ZM51.02 173.41L71.52 173.38Q71.45 168.66 68.86 165.84Q66.3 163.03 62.05 163.03Q57.23 163.03 54.33 165.75Q51.45 168.47 51.02 173.41ZM109.02 160.03L109.02 165.47Q106.58 164.22 103.95 163.59Q101.33 162.97 98.52 162.97Q94.23 162.97 92.08 164.28Q89.95 165.59 89.95 168.22Q89.95 170.22 91.48 171.38Q93.02 172.5 97.64 173.53L99.61 173.97Q105.73 175.28 108.3 177.69Q110.89 180.06 110.89 184.34Q110.89 189.22 107.02 192.06Q103.17 194.91 96.42 194.91Q93.61 194.91 90.55 194.38Q87.52 193.81 84.14 192.72L84.14 186.78Q87.33 188.44 90.42 189.28Q93.52 190.09 96.55 190.09Q100.61 190.09 102.8 188.72Q104.98 187.31 104.98 184.78Q104.98 182.44 103.39 181.19Q101.83 179.94 96.48 178.78L94.48 178.31Q89.14 177.19 86.77 174.88Q84.39 172.53 84.39 168.47Q84.39 163.53 87.89 160.84Q91.39 158.16 97.83 158.16Q101.02 158.16 103.83 158.63Q106.64 159.09 109.02 160.03ZM119.45 180.19L119.45 159L125.2 159L125.2 179.97Q125.2 184.94 127.14 187.44Q129.08 189.91 132.95 189.91Q137.61 189.91 140.3 186.94Q143.02 183.97 143.02 178.84L143.02 159L148.77 159L148.77 194L143.02 194L143.02 188.63Q140.92 191.81 138.14 193.38Q135.39 194.91 131.73 194.91Q125.7 194.91 122.58 191.16Q119.45 187.41 119.45 180.19ZM133.92 158.16L133.92 158.16ZM187.86 165.72Q190.02 161.84 193.02 160Q196.02 158.16 200.08 158.16Q205.55 158.16 208.52 162Q211.48 165.81 211.48 172.88L211.48 194L205.7 194L205.7 173.06Q205.7 168.03 203.92 165.59Q202.14 163.16 198.48 163.16Q194.02 163.16 191.42 166.13Q188.83 169.09 188.83 174.22L188.83 194L183.05 194L183.05 173.06Q183.05 168 181.27 165.59Q179.48 163.16 175.77 163.16Q171.36 163.16 168.77 166.16Q166.17 169.13 166.17 174.22L166.17 194L160.39 194L160.39 159L166.17 159L166.17 164.44Q168.14 161.22 170.89 159.69Q173.64 158.16 177.42 158.16Q181.23 158.16 183.89 160.09Q186.58 162.03 187.86 165.72ZM252.89 175.06L252.89 177.88L226.45 177.88Q226.83 183.81 230.02 186.94Q233.23 190.03 238.95 190.03Q242.27 190.03 245.36 189.22Q248.48 188.41 251.55 186.78L251.55 192.22Q248.45 193.53 245.2 194.22Q241.95 194.91 238.61 194.91Q230.23 194.91 225.33 190.03Q220.45 185.16 220.45 176.84Q220.45 168.25 225.08 163.22Q229.73 158.16 237.61 158.16Q244.67 158.16 248.77 162.72Q252.89 167.25 252.89 175.06ZM226.64 173.41L247.14 173.38Q247.08 168.66 244.48 165.84Q241.92 163.03 237.67 163.03Q232.86 163.03 229.95 165.75Q227.08 168.47 226.64 173.41Z" />
</svg>